<?xml version="1.0" encoding="utf-8"?>
<!-- Generator: Adobe Illustrator 22.0.0, SVG Export Plug-In . SVG Version: 6.00 Build 0)  -->
<!DOCTYPE svg PUBLIC "-//W3C//DTD SVG 1.1//EN" "http://www.w3.org/Graphics/SVG/1.1/DTD/svg11.dtd" [
	<!ENTITY st0 "fill:#FFFFFF;">
]>
<svg version="1.1" id="Layer_1" xmlns="http://www.w3.org/2000/svg" xmlns:xlink="http://www.w3.org/1999/xlink" x="0px" y="0px"
	 width="304px" height="200px" viewBox="0 0 304 200" style="enable-background:new 0 0 304 200;" xml:space="preserve">
<path style="&st0;" d="M45.2,40.8l-5.3,0.9l-3.3-11.4l-16.7,3c0,9.7,0,19.5,0,29.3l12-2.1l2.9-6.6l3.4-0.6c0,5.5,0,13.4,0,18.8
	l-3.4,0.6l-2.9-5.4l-12,2.1c0,9.6,0,19.1,0,28.8l4.9,2.5v3.2c-6.3,1.1-14.7,2.6-21.1,3.8v-3.2l5-4.2c0-21.6,0-43.2,0-64.8l-4.2-2.7
	v-3.2C18,27,31.6,24.6,45.2,22.2V40.8z"/>
<path style="&st0;" d="M58.6,79l-3.2,14.3l3.7,1.2v3.2l-14,2.5V97l3.6-2.6C53.5,72.9,59,47.7,64.2,26.3L75,24.4l16,62.1l3.6,1.7v3.2
	l-18.1,3.2V92l3.5-2.9l-3.2-13.2L58.6,79z M67.5,38.5c-2.1,9.1-5,22.3-7.6,34.3l15.2-2.7l-7.6-31.6L67.5,38.5z"/>
<path style="&st0;" d="M124.5,64.1c-2-4.9-3.3-6.1-9.1-5.1c0,6.1,0,16.2,0,22.6l4.2,2.4v3c-5.9,1-13.4,2.4-19.1,3.4v-3l4.2-3.9
	c0-19.4,0-39.1,0-58.3l-3.6-2.2v-3l20.4-3.6c10.8-1.9,19.8,0.5,19.8,12.8c0,2.9,0,6.1,0,9.1c0,8.6-4.8,14.2-11.1,16.7
	c3,1.1,4.2,2.8,5.3,5.6c1.6,4.1,3.1,8,4.7,12.1c1,2.5,2.7,5.9,5.8,4.8v4.1c-2.1,1.4-5.2,2.3-7.5,2.7c-6.5,1.3-7.1-3.2-9.1-8.2
	L124.5,64.1z M115.2,24c0,10.8,0,18.1,0,28.9l6.1-1.1c6.6-1.2,9-5.3,9-11.5c0-3,0-6.2,0-9.1c0-6.2-2.1-9.5-8.9-8.3L115.2,24z"/>
<path style="&st0;" d="M165.2,72.9l4,2.1v3.2l-15.5,2.7v-3.2l4-3.5V15.8l-3.8-2.1v-3l14.6-2.6c4.8-0.8,6.5-0.7,7.6,3.6
	c3.6,19.1,5.6,31.5,7.6,50.7l0.2,0l8.5-54.1c0.8-4,2.1-4.7,6-5.4l15.2-2.7v3l-3.8,3.5v58.3l4.2,2.4v3l-19.3,3.4v-3l4.2-3.9
	c0-47,0-46.9,0-46.7V9.9l-0.3,0.1L188.1,74l-8.8,1.6c-2.2,0.4-3.2-0.3-3.6-2.3c-3.1-19.4-6.1-37.6-9.7-56.8l-1.4,0.3l0.6,12.6V72.9z
	"/>
<path style="&st0;" d="M100.3,116.1c13.4-2.4,22.4,1.6,22.4,16.2v37.4c0,13.8-9.3,22.1-22.4,24.4l-24,4.3v-3.2l4.9-4.2V126l-4.2-2.6
	v-3.2L100.3,116.1z M92.9,124.2v60.1c0,1.9-0.6,3-2.4,3.9l0.1,0.6l9.8-1.7c8.2-1.6,10.8-7.9,10.8-15.4v-37.4
	c0-7.3-2.6-12.8-10.8-11.4L92.9,124.2z"/>
<path style="&st0;" d="M181.3,160c0,12.6-8.7,22.4-22.4,24.8c-13.6,2.4-22.3-4.4-22.3-16.9v-38.7c0-12.5,8.7-22.4,22.3-24.8
	c13.7-2.4,22.4,4.3,22.4,16.8V160z M148.3,165.9c0,8.7,3.3,12.8,10.7,11.5c7.5-1.3,10.9-8.1,10.9-15.3v-38.7
	c0-7.3-3.4-12.7-10.9-11.4c-7.3,1.3-10.7,6.5-10.7,15.3V165.9z"/>
<path style="&st0;" d="M239.9,149.6c0,12.6-8.7,22.4-22.4,24.8c-13.6,2.4-22.3-4.4-22.3-16.9v-38.7c0-12.5,8.7-22.4,22.3-24.8
	c13.7-2.4,22.4,4.3,22.4,16.8V149.6z M206.8,155.5c0,8.7,3.3,12.8,10.7,11.5c7.5-1.3,10.9-8.1,10.9-15.3v-38.7
	c0-7.3-3.4-12.7-10.9-11.4c-7.3,1.3-10.7,6.5-10.7,15.3V155.5z"/>
<path style="&st0;" d="M278.6,138c-2.2-5.6-4.2-6.8-10.8-5.6c0,7,0,18.4,0,25.5l4.9,2.5v3.2c-6.5,1.1-14.7,2.6-21.1,3.8V164l4.9-4.2
	c0-21.6,0-43.7,0-65.3l-4.1-2.2v-3.2l22.6-4c12-2.1,21.8,0.7,21.8,14.3v10.1c0,9.6-5.3,15.9-12.6,18.6c3.3,1.2,4.8,3,6,6.3l5.2,13.4
	c1.1,2.8,3.1,6.8,6.7,5.4v4.3c-2.2,1.5-5.7,2.5-8.1,2.9c-7,1.2-7.7-3.6-9.9-9.1L278.6,138z M267.7,93.3c0,12.1,0,20.5,0,32.6
	l7.1-1.3c7.5-1.3,10.3-6,10.3-13.1v-10.1c0-7.1-2.6-10.8-10.2-9.4L267.7,93.3z"/>
<path style="&st0;" d="M58.1,187.6c0.5,0.9,0.7,1.8,0.7,2.7c0,1.5-0.7,2.7-2.1,3.7c-0.8,0.5-1.7,1-2.7,1.2c-1,0.3-2.1,0.3-3.2,0.2
	c-0.5-0.1-1.1-0.2-1.6-0.4s-1-0.5-1.4-0.8l0.4-0.5c0.4,0.3,0.8,0.5,1.3,0.7c0.5,0.2,0.9,0.3,1.4,0.4c1,0.1,2,0.1,2.9-0.1
	c1-0.2,1.8-0.6,2.5-1.1c0.3-0.2,0.7-0.6,1.2-1.2c0.4-0.5,0.7-1.3,0.7-2.1c0-0.7-0.2-1.5-0.6-2.3c0-0.1,0-0.1,0-0.1
	c-0.4-0.6-0.9-1.1-1.4-1.6c-0.5-0.4-1.1-0.8-1.7-1.1c-0.6-0.3-1.3-0.5-1.9-0.7c-0.2-0.1-0.5-0.1-0.8-0.2c-0.3-0.1-0.5-0.1-0.8-0.1
	c-0.4-0.1-0.8-0.1-1.2-0.1c-0.4,0-0.8,0-1.2,0c-0.7,0-1.4,0-2,0.1c-0.7,0.1-1.3,0.2-2,0.3c-1.3,0.3-2.6,0.7-3.9,1.2
	c-1.3,0.6-2.5,1.2-3.7,1.9c-1.2,0.7-2.4,1.5-3.5,2.3c-1.2,0.8-2.4,1.7-3.6,2.5c-0.6,0.4-1.2,0.8-1.8,1.2c-0.6,0.4-1.2,0.8-1.9,1.2
	c-0.6,0.4-1.3,0.8-1.9,1.2s-1.3,0.7-2,1c-1.4,0.6-2.8,1.2-4.3,1.5s-2.9,0.6-4.4,0.7c-0.5,0-1.1,0-1.6,0c-0.5,0-1.1-0.1-1.6-0.1
	c-0.2,0-0.4-0.1-0.6-0.1c-0.2,0-0.4-0.1-0.6-0.1c-0.7-0.2-1.4-0.4-2.2-0.7c-0.7-0.3-1.4-0.7-2-1.1c-0.7-0.5-1.3-1-1.7-1.6
	c-0.5-0.7-1-1.3-1.3-2c-0.2-0.4-0.3-0.7-0.4-1.1c-0.1-0.4-0.2-0.7-0.3-1.1c0-0.1,0-0.2,0-0.4c-0.1-0.4-0.1-0.8-0.1-1.1v-0.6
	c0,0.1,0,0.1,0,0.1c0.1-0.7,0.3-1.3,0.5-1.7c0.3-0.5,0.7-1,1.3-1.5c0.6-0.4,1.2-0.8,1.9-1.1c0.7-0.3,1.5-0.5,2.3-0.7
	c0.8-0.1,1.7-0.2,2.5-0.2c0.2,0,0.3,0,0.4,0c0.1,0,0.3,0,0.4,0c1.5,0.2,2.8,0.7,3.8,1.4c1.1,0.7,1.9,1.7,2.4,3l-0.6,0.2
	c-0.5-1.1-1.2-2-2.2-2.7c-1-0.7-2.2-1.1-3.5-1.3c-0.2,0-0.3,0-0.4,0c-0.1,0-0.2,0-0.4,0c-0.8-0.1-1.6,0-2.4,0.1
	c-0.8,0.1-1.5,0.3-2.1,0.6c-0.7,0.3-1.2,0.6-1.7,1c-0.5,0.4-0.9,0.9-1.2,1.4c-0.3,0.5-0.5,1.2-0.5,1.9c0,0.9,0.3,1.9,0.8,2.9
	l0.2,0.3c0.8,1.1,1.8,2,3,2.7c0.5,0.2,1,0.4,1.5,0.6s1,0.3,1.6,0.4c0.1,0,0.2,0,0.3,0c0.1,0,0.2,0,0.3,0c0.7,0.1,1.3,0.1,2,0.1
	c0.7,0,1.3-0.1,2-0.2c0.6-0.1,1.3-0.2,1.9-0.3c0.7-0.2,1.3-0.3,2-0.6c1.2-0.4,2.5-0.9,3.7-1.5c0.6-0.3,1.2-0.7,1.8-1
	c0.6-0.4,1.2-0.7,1.8-1.1c0.6-0.3,1.2-0.7,1.8-1.1c0.6-0.4,1.2-0.8,1.8-1.2c1.2-0.8,2.4-1.7,3.6-2.5c1.2-0.8,2.5-1.6,3.9-2.3
	c1.3-0.7,2.7-1.3,4.1-1.8c1.4-0.5,2.8-0.8,4.3-1c1.4-0.2,2.9-0.2,4.4-0.1l0.7,0.1c0.6,0.1,1.2,0.2,1.8,0.3c0.6,0.1,1.2,0.3,1.8,0.6
	c0.6,0.2,1.1,0.5,1.7,0.8c0.5,0.3,1,0.7,1.5,1.1c0.5,0.4,0.9,0.8,1.3,1.2C57.5,186.7,57.8,187.2,58.1,187.6z M65,138.9
	c0.4,0.9,0.7,1.8,0.7,2.6c0,1.6-0.7,2.8-2.1,3.7c-0.8,0.6-1.7,1-2.7,1.3c-1,0.3-2.1,0.3-3.2,0.2c-1.1-0.2-2.1-0.6-3-1.2
	c0.1-0.1,0.1-0.2,0.2-0.3c0.1-0.1,0.1-0.2,0.2-0.3c0.8,0.6,1.7,1,2.7,1.1c1,0.1,2,0.1,2.9-0.2c1-0.3,1.8-0.6,2.5-1.2
	c0.3-0.2,0.7-0.6,1.2-1.2c0.5-0.6,0.7-1.3,0.7-2.1c0-0.7-0.2-1.5-0.7-2.4c-0.4-0.6-0.9-1.1-1.4-1.5c-0.5-0.4-1.1-0.8-1.7-1.1
	c-0.6-0.3-1.3-0.5-1.9-0.7c-0.3-0.1-0.6-0.2-0.8-0.2c-0.3,0-0.6-0.1-0.8-0.1c-0.8-0.1-1.6-0.2-2.3-0.1c-0.7,0-1.4,0-2,0.1
	c-0.7,0.1-1.3,0.2-1.9,0.3c-1.3,0.3-2.6,0.7-3.9,1.2c-1.3,0.6-2.5,1.2-3.7,1.9c-1.2,0.7-2.4,1.5-3.6,2.3s-2.4,1.6-3.6,2.5
	c-0.6,0.4-1.2,0.9-1.9,1.3c-0.6,0.4-1.2,0.8-1.9,1.2c-1.2,0.8-2.5,1.5-3.9,2.3c-1.4,0.6-2.9,1.2-4.3,1.5c-1.4,0.4-2.9,0.6-4.4,0.6
	c-1.1,0.1-2.3,0.1-3.3-0.1c-0.2,0-0.4-0.1-0.5-0.1c-0.2,0-0.3-0.1-0.5-0.1c-1.6-0.4-3-1-4.2-1.8c-0.7-0.4-1.2-1-1.8-1.6
	c-0.2-0.3-0.5-0.6-0.7-1c-0.2-0.3-0.4-0.7-0.6-1c-0.2-0.4-0.3-0.7-0.4-1.1c-0.1-0.4-0.2-0.7-0.3-1.1c0-0.1,0-0.1,0-0.2
	c0-0.1,0-0.1,0-0.2c-0.1-0.4-0.1-0.7-0.1-1.1v-0.6c0,0.1,0,0.1,0,0.1c0.1-0.6,0.3-1.2,0.5-1.7c0.3-0.5,0.7-1,1.3-1.5
	c0.6-0.4,1.2-0.8,1.9-1.1c0.7-0.3,1.5-0.5,2.3-0.6c0.8-0.1,1.7-0.2,2.5-0.2c0.2,0,0.3,0,0.4,0c0.1,0,0.3,0,0.4,0
	c1.5,0.2,2.7,0.7,3.8,1.4c1.1,0.7,1.9,1.7,2.4,3c-0.1,0.1-0.1,0.1-0.3,0.1c-0.1,0-0.2,0.1-0.3,0.1c-0.5-1.2-1.2-2.1-2.2-2.7
	c-1-0.7-2.1-1.1-3.5-1.3c-0.2,0-0.3,0-0.4,0c-0.1,0-0.2,0-0.4,0c-0.8,0-1.6,0-2.4,0.2c-0.8,0.1-1.5,0.3-2.1,0.6
	c-0.7,0.3-1.2,0.6-1.7,1c-0.5,0.4-0.9,0.9-1.2,1.4c-0.3,0.6-0.5,1.2-0.5,1.8c0,0.9,0.3,1.9,0.9,2.9c0.1,0.1,0.1,0.1,0.1,0.2
	c0,0,0,0.1,0.1,0.2c0.8,1.1,1.8,1.9,3,2.6c1,0.5,2,0.8,3.2,1l0.6,0.1c1.3,0.2,2.6,0.1,4-0.1c0.6-0.1,1.3-0.2,1.9-0.3
	c0.7-0.2,1.3-0.3,2-0.5c0.6-0.2,1.2-0.5,1.9-0.7c0.6-0.2,1.2-0.5,1.9-0.8c1.2-0.6,2.4-1.3,3.6-2.1c0.6-0.4,1.2-0.8,1.8-1.2
	c0.6-0.4,1.2-0.8,1.8-1.2c1.2-0.8,2.4-1.6,3.7-2.5c1.2-0.8,2.5-1.6,3.8-2.3c1.3-0.7,2.7-1.3,4.1-1.8c1.4-0.5,2.8-0.9,4.3-1
	c0.7-0.1,1.5-0.2,2.2-0.2c0.7,0,1.5,0.1,2.2,0.1c0.2,0,0.3,0,0.4,0c0.1,0,0.3,0,0.4,0c0.6,0.1,1.2,0.2,1.7,0.4
	c0.6,0.2,1.1,0.4,1.7,0.6c1.2,0.5,2.2,1.1,3.1,1.9C63.8,137.1,64.6,138,65,138.9z M15.1,166.8c0.1-0.5,0.1-1.2,0.1-2
	c0-0.8,0-1.7,0-2.5c0-0.8,0.1-1.5,0.2-2.1c0.1-0.6,0.3-0.9,0.6-0.9c0.2,0.1,0.3,0.6,0.4,1.6c0.1,0,0.2-0.1,0.2-0.1
	c0.5-0.1,0.9-0.1,1.2-0.1c0.4,0,0.7-0.1,1-0.1c0.3-0.1,0.7-0.1,1-0.2s0.8-0.2,1.3-0.4c0.4-0.2,0.8-0.3,1.3-0.5
	c0.5-0.2,0.8-0.4,1.2-0.6c0.6-0.2,1.2-0.4,1.9-0.6c0.7-0.2,1.4-0.4,2.2-0.7s1.5-0.5,2.2-0.9c0.7-0.3,1.4-0.7,2.1-1.2
	c-0.1-0.1-0.1-0.3-0.1-0.5c0-0.3,0.1-0.7,0.3-1s0.5-0.5,0.9-0.7c0.1,0.7,0.1,1.4,0.2,2.3c0,0.9,0.1,1.8,0.1,2.6c0,1.1,0,2-0.1,2.8
	c-0.1,0.8-0.3,1.3-0.6,1.4c0,0-0.1,0-0.2,0c-0.2,0-0.4-0.3-0.5-1c-0.1-0.6-0.1-1.3-0.1-2.1c0-0.6,0-1.1,0-1.7c0-0.6,0.1-1.1,0.1-1.5
	c-0.5,0.5-1.1,0.9-1.6,1.1c-0.6,0.2-1.1,0.5-1.6,0.7c-0.5,0.2-1,0.5-1.4,0.8c-0.4,0.3-0.8,0.7-1.1,1.3c0.1,0.8,0.1,1.7,0.1,2.8
	c0,1,0,2.1,0,3.2v3.3c0,0.5,0,1,0,1.5c0,0.5,0,0.9,0,1.4c0,0.4,0.1,1.1,0.1,2c0,0.9,0,1.8,0,2.8c0,1,0,2-0.1,2.9
	c-0.1,0.9-0.2,1.5-0.3,1.9c-0.5,0.7-1.1,1.2-1.7,1.5c-0.6,0.3-1.2,0.4-1.7,0.3c-0.7-0.1-1.2-0.4-1.4-1c-0.1-1.6-0.1-3.3-0.2-5.1
	c-0.1-1.8-0.1-3.6-0.1-5.4c0-2,0.1-3.9,0.2-5.7c0.1-1.9,0.3-3.6,0.7-5.2c-0.6,0.1-1.1,0.2-1.6,0.2c-0.4,0.1-0.8,0.2-1.2,0.3
	c-0.4,0.1-0.8,0.2-1.2,0.3c-0.4,0.1-0.9,0.2-1.5,0.2c0.1,0.9,0.1,1.8,0.1,2.8c0,1,0,1.7,0.1,2.2c-0.2,0.2-0.4,0.4-0.6,0.4
	c-0.2,0.1-0.4,0.1-0.5,0.1C15.3,167.3,15.1,167.1,15.1,166.8z M39.2,175.3c-0.4-0.1-0.8-0.3-1.3-0.8c-0.5-0.5-0.9-1.1-1.3-1.8
	c-0.4-0.7-0.8-1.5-1-2.3c-0.3-0.8-0.5-1.7-0.5-2.4v-0.6c0-0.9,0.1-1.8,0.2-2.9c0.2-1.1,0.4-2.1,0.6-3.2c0.3-1.1,0.6-2.1,0.9-3
	c0.3-0.9,0.7-1.8,1.1-2.4c0.4-0.8,0.9-1.5,1.5-2.3c0.6-0.8,1.2-1.5,1.9-2.1c0.7-0.7,1.3-1.2,1.9-1.6c0.6-0.4,1.2-0.6,1.7-0.7
	c0.1,0,0.2,0,0.4,0c0.3,0,0.7,0.2,1,0.4c0.4,0.2,0.7,0.5,1.1,0.8c0.3,0.3,0.7,0.6,1,1c0.3,0.4,0.5,0.7,0.7,1.1
	c0.4,0.9,0.7,2,0.8,3.2c0.2,1.2,0.3,2.5,0.3,3.9c0,1.4-0.1,2.9-0.3,4.3c-0.2,1.4-0.5,2.8-0.8,4c-0.3,1.3-0.8,2.3-1.2,3.3
	c-0.5,0.9-1,1.6-1.7,2c-0.2,0.2-0.7,0.4-1.2,0.6c-0.6,0.3-1.2,0.5-1.9,0.8c-0.7,0.3-1.4,0.5-2.1,0.7S39.6,175.3,39.2,175.3z
	 M42.9,171.5c0.4,0.3,0.8,0.4,1.2,0.5c0.8,0.1,1.6-0.2,2.2-1.1c0.7-0.8,1.2-1.9,1.6-3.2c0.4-1.3,0.8-2.8,1-4.4
	c0.2-1.6,0.3-3.1,0.3-4.6c0-0.4,0-0.7,0-1.1c0-0.3,0-0.7-0.1-1c-0.1-0.8-0.2-1.6-0.4-2.4c-0.2-0.8-0.5-1.4-0.8-2
	c-0.3-0.6-0.7-1.1-1.1-1.5c-0.4-0.4-0.9-0.6-1.4-0.7c-0.3,0-0.6,0-0.9,0.1c-0.4,0.1-0.8,0.3-1.1,0.6c-0.3,0.2-0.7,0.6-1,1
	c-0.8,1.1-1.4,2.4-1.7,3.9c-0.3,1.5-0.5,3.2-0.7,5.1c-0.1,0.6-0.1,1.2-0.1,1.8c0,1.1,0.1,2.1,0.3,3.1s0.5,1.9,0.8,2.7
	c0.3,0.8,0.7,1.5,1,2.1C42.4,170.8,42.7,171.3,42.9,171.5z"/>
</svg>
